<svg xmlns="http://www.w3.org/2000/svg" width="36" height="36" viewBox="0 0 36 36">
  <g id="arrow-right_icon" data-name="arrow-right icon" transform="translate(121 -28)">
    <path id="Path_17412" data-name="Path 17412" d="M4.5,0A4.5,4.5,0,0,0,0,4.5v27A4.5,4.5,0,0,0,4.5,36h27A4.5,4.5,0,0,0,36,31.5V4.5A4.5,4.5,0,0,0,31.5,0ZM17.2,23.954A1.126,1.126,0,1,0,18.8,25.547l6.75-6.75a1.125,1.125,0,0,0,0-1.593l-6.75-6.75A1.126,1.126,0,1,0,17.2,12.047l4.83,4.828H11.25a1.125,1.125,0,0,0,0,2.25H22.034L17.2,23.954Z" transform="translate(-121 28)" fill-rule="evenodd"/>
  </g>
</svg>
