<svg xmlns="http://www.w3.org/2000/svg" width="70.351" height="70.351" viewBox="0 0 70.351 70.351">
  <path id="bxs-dollar-circle" d="M38.175,3A35.175,35.175,0,1,0,73.351,38.175,35.215,35.215,0,0,0,38.175,3Zm3.518,52.463v3.818H34.658v-3.8c-8.226-1.29-10.553-7.042-10.553-10.271H31.14c.04.5.558,3.518,7.035,3.518,4.854,0,7.035-2.057,7.035-3.518,0-1.14,0-3.518-7.035-3.518-12.241,0-14.07-6.613-14.07-10.553,0-4.531,3.618-9.089,10.553-10.255V17.112h7.035v3.9A10.56,10.56,0,0,1,50.135,31.14H46.617L43.1,31.2c-.049-1.337-.757-3.581-4.925-3.581-4.568,0-7.035,1.815-7.035,3.518,0,1.316,0,3.518,7.035,3.518,12.241,0,14.07,6.613,14.07,10.553,0,4.531-3.618,9.089-10.553,10.255Z" transform="translate(-3 -3)"/>
</svg>
