<svg xmlns="http://www.w3.org/2000/svg" width="70.35" height="62.787" viewBox="0 0 70.35 62.787">
  <g id="cart" transform="translate(-2.25 -4.5)">
    <path id="Path_17425" data-name="Path 17425" d="M20.277,32.076A5.076,5.076,0,1,1,15.2,27,5.076,5.076,0,0,1,20.277,32.076Z" transform="translate(10.533 30.134)"/>
    <path id="Path_17426" data-name="Path 17426" d="M36.027,32.076A5.076,5.076,0,1,1,30.951,27,5.076,5.076,0,0,1,36.027,32.076Z" transform="translate(31.773 30.134)"/>
    <path id="Path_17427" data-name="Path 17427" d="M71.709,13.856a3.9,3.9,0,0,0-3.035-1.446H18.909l-1-5.73A2.622,2.622,0,0,0,15.331,4.5H4.866a2.637,2.637,0,0,0,0,5.273h8.269L20.6,52.417a2.622,2.622,0,0,0,2.579,2.18H65.037a2.637,2.637,0,0,0,0-5.273H25.374l-.923-5.273H63.965a3.942,3.942,0,0,0,3.851-3.178l4.709-23.73a3.979,3.979,0,0,0-.819-3.284Z" transform="translate(0 0)"/>
  </g>
</svg>
