<svg xmlns="http://www.w3.org/2000/svg" width="48" height="48" viewBox="0 0 48 48">
  <g id="down_arrow" data-name="down arrow" transform="translate(76 121) rotate(90)">
    <path id="Path_17412" data-name="Path 17412" d="M6,0A6,6,0,0,0,0,6V42a6,6,0,0,0,6,6H42a6,6,0,0,0,6-6V6a6,6,0,0,0-6-6ZM22.939,31.939a1.5,1.5,0,1,0,2.124,2.124l9-9a1.5,1.5,0,0,0,0-2.124l-9-9a1.5,1.5,0,1,0-2.124,2.124l6.44,6.437H15a1.5,1.5,0,0,0,0,3H29.379l-6.441,6.439Z" transform="translate(-121 28)" fill-rule="evenodd"/>
  </g>
</svg>
