<svg id="Capa_1" enable-background="new 0 0 511.762 511.762" height="512" viewBox="0 0 511.762 511.762" width="512" xmlns="http://www.w3.org/2000/svg"><g><path d="m240.881 228.762h30v55h-30z" fill="#93db79"/><path d="m255.881 228.762h15v55h-15z" fill="#69ba74"/><path d="m255.881 247.523c-4.863-4.334-23.029-13.865-35.387-38.309-25.952 8.56-45.607 2.421-52.125 2.059-.373-6.497-6.484-26.094 2.07-52.119-24.454-12.356-33.955-30.496-38.32-35.392 4.339-4.867 13.867-23.035 38.318-35.393-8.545-26.008-2.436-45.704-2.068-52.119 5.516-.12 25.615-6.684 52.125 2.059 12.346-24.421 30.599-34.041 35.387-38.309 4.89 4.358 23.029 13.865 35.387 38.309 25.995-8.568 45.676-2.412 52.125-2.059.373 6.486 6.482 26.092-2.068 52.121 24.45 12.353 33.975 30.52 38.318 35.391-4.372 4.904-13.867 23.037-38.318 35.391 8.544 26.008 2.436 45.718 2.068 52.121-5.551.121-25.575 6.698-52.125-2.059-12.345 24.414-30.6 34.041-35.387 38.308z" fill="#f4dc57"/><path d="m341.324 88.371c8.544-26.008 2.436-45.718 2.068-52.121-6.679-.422-26.272-6.463-52.125 2.059-12.344-24.418-30.577-34.023-35.386-38.309v247.523c4.867-4.339 23.029-13.869 35.387-38.309 26.532 8.751 46.527 2.18 52.125 2.059.373-6.486 6.482-26.092-2.068-52.121 24.426-12.341 34.021-30.57 38.318-35.391-4.334-4.862-13.871-23.038-38.319-35.39z" fill="#eec442"/><path d="m255.881 458.631-102.345-23.369-20.882-106.5h246.453l-17.455 38.021-3.427 68.479z" fill="#8d5b4a"/><path d="m255.881 328.762v106.5l53.5 15.869 48.845-15.869 20.882-106.5z" fill="#7d4d3e"/><path d="m255.881 345.137h-150v-76.375h150l150 38.187z" fill="#b57a6a"/><path d="m255.881 268.762h150v76.375h-150z" fill="#8d5b4a"/><path d="m153.536 435.262 15 76.5h87.345l102.345-76.5z" fill="#7d4d3e"/><path d="m255.881 435.262v76.5h87.345l15-76.5z" fill="#58332a"/></g></svg>