<svg id="annual_tour_icon" data-name="annual tour icon" xmlns="http://www.w3.org/2000/svg" width="27.546" height="45.91" viewBox="0 0 27.546 45.91">
  <g id="_009---Suitcase" data-name="009---Suitcase" transform="translate(0 0)">
    <path id="Shape" d="M3.061,41.319v1.913a2.678,2.678,0,1,0,5.356,0V41.319H19.129v1.913a2.678,2.678,0,0,0,5.356,0V41.319a3.061,3.061,0,0,0,3.061-3.061V17.6a5.362,5.362,0,0,0-5.356-5.356V7.82a2.284,2.284,0,0,0,.765-1.7V2.3a2.3,2.3,0,0,0-2.3-2.3H6.886a2.3,2.3,0,0,0-2.3,2.3V6.121a2.284,2.284,0,0,0,.765,1.7v4.423A5.362,5.362,0,0,0,0,17.6V38.258A3.061,3.061,0,0,0,3.061,41.319Zm3.826,1.913a1.148,1.148,0,0,1-2.3,0V41.319h2.3Zm16.068,0a1.148,1.148,0,0,1-2.3,0V41.319h2.3Zm1.53-3.443H3.061a1.53,1.53,0,0,1-1.53-1.53v-1.53H26.016v1.53A1.53,1.53,0,0,1,24.485,39.789ZM20.659,12.243h-1.53V8.417h1.53Zm-10.712,0V7.82a2.284,2.284,0,0,0,.765-1.7V5.356h6.121v.765a2.284,2.284,0,0,0,.765,1.7v4.423Zm-2.3,6.438,1.53,1.53v4.274H6.121V20.211ZM6.121,2.3a.765.765,0,0,1,.765-.765H20.659a.765.765,0,0,1,.765.765V6.121a.765.765,0,0,1-.765.765h-1.53a.765.765,0,0,1-.765-.765V4.591a.765.765,0,0,0-.765-.765H9.947a.765.765,0,0,0-.765.765v1.53a.765.765,0,0,1-.765.765H6.886a.765.765,0,0,1-.765-.765Zm.765,6.121h1.53v3.826H6.886Zm-1.53,5.356h1.53v3.509L5.039,19.129a1.52,1.52,0,0,0-.448,1.082v4.274a1.53,1.53,0,0,0,1.53,1.53H9.182a1.53,1.53,0,0,0,1.53-1.53V20.211a1.52,1.52,0,0,0-.448-1.082L8.417,17.282V13.773H22.19A3.83,3.83,0,0,1,26.016,17.6V32.137H9.947a.765.765,0,1,0,0,1.53H26.016V35.2H1.53v-1.53H6.121a.765.765,0,1,0,0-1.53H1.53V17.6A3.83,3.83,0,0,1,5.356,13.773Z" transform="translate(0 0)" fill="#6837fa"/>
  </g>
</svg>
