<svg xmlns="http://www.w3.org/2000/svg" width="45.413" height="45.413" viewBox="0 0 45.413 45.413">
  <g id="coding" transform="translate(-2 -2)">
    <path id="Path_60" data-name="Path 60" d="M45.467,47.413H3.946A1.946,1.946,0,0,1,2,45.467V38.253a.649.649,0,1,1,1.3,0v7.214a.649.649,0,0,0,.649.649H45.467a.649.649,0,0,0,.649-.649V3.946a.649.649,0,0,0-.649-.649H3.946a.649.649,0,0,0-.649.649V20.814a.649.649,0,1,1-1.3,0V3.946A1.946,1.946,0,0,1,3.946,2H45.467a1.946,1.946,0,0,1,1.946,1.946V45.467A1.946,1.946,0,0,1,45.467,47.413Z" fill="#6837fa"/>
    <path id="Path_61" data-name="Path 61" d="M2.649,50.138A.649.649,0,0,1,2,49.49v-1.9a.649.649,0,0,1,1.3,0v1.9A.649.649,0,0,1,2.649,50.138Z" transform="translate(0 -15.785)" fill="#6837fa"/>
    <path id="Path_62" data-name="Path 62" d="M2.649,40.2A.649.649,0,0,1,2,39.556V37.649a.649.649,0,0,1,1.3,0v1.907A.649.649,0,0,1,2.649,40.2Z" transform="translate(0 -12.293)" fill="#6837fa"/>
    <path id="Path_63" data-name="Path 63" d="M46.764,18.3H2.649a.649.649,0,0,1,0-1.3H46.764a.649.649,0,0,1,0,1.3Z" transform="translate(0 -5.269)" fill="#6837fa"/>
    <path id="Path_64" data-name="Path 64" d="M60.927,11.616a2.434,2.434,0,1,1,2.437-2.434A2.434,2.434,0,0,1,60.927,11.616Zm0-3.568a1.137,1.137,0,1,0,1.14,1.134,1.137,1.137,0,0,0-1.14-1.134Z" transform="translate(-19.844 -1.668)" fill="#6837fa"/>
    <path id="Path_65" data-name="Path 65" d="M50.724,11.616a2.434,2.434,0,1,1,2.433-2.434A2.434,2.434,0,0,1,50.724,11.616Zm0-3.568A1.137,1.137,0,1,0,51.86,9.182a1.137,1.137,0,0,0-1.136-1.134Z" transform="translate(-16.259 -1.668)" fill="#6837fa"/>
    <path id="Path_66" data-name="Path 66" d="M40.522,11.616a2.434,2.434,0,1,1,2.434-2.434A2.434,2.434,0,0,1,40.522,11.616Zm0-3.568a1.137,1.137,0,1,0,1.137,1.134,1.137,1.137,0,0,0-1.137-1.134Z" transform="translate(-12.676 -1.668)" fill="#6837fa"/>
    <path id="Path_67" data-name="Path 67" d="M24.156,10.8H8.654a.649.649,0,1,1,0-1.3h15.5a.649.649,0,0,1,0,1.3Z" transform="translate(-2.109 -2.634)" fill="#6837fa"/>
    <path id="Path_68" data-name="Path 68" d="M45.862,45.758a.649.649,0,0,1-.421-1.143l4.445-3.782-4.445-3.782a.65.65,0,1,1,.843-.989l5.025,4.276a.649.649,0,0,1,0,.989L46.285,45.6A.649.649,0,0,1,45.862,45.758Z" transform="translate(-15.178 -11.91)" fill="#6837fa"/>
    <path id="Path_69" data-name="Path 69" d="M24.714,45.758a.649.649,0,0,1-.42-.154l-5.025-4.276a.649.649,0,0,1,0-.989l5.025-4.276a.65.65,0,0,1,.843.989l-4.447,3.782,4.445,3.782a.649.649,0,0,1-.421,1.143Z" transform="translate(-5.985 -11.91)" fill="#6837fa"/>
    <path id="Path_70" data-name="Path 70" d="M31.27,48.112a.656.656,0,0,1-.226-.04.649.649,0,0,1-.382-.834l6.979-18.814a.649.649,0,1,1,1.216.454L31.878,47.691a.649.649,0,0,1-.609.42Z" transform="translate(-10.053 -9.133)" fill="#6837fa"/>
  </g>
</svg>
