<svg xmlns="http://www.w3.org/2000/svg" width="44.778" height="48.426" viewBox="0 0 44.778 48.426">
  <g id="designing" transform="translate(-19.288)">
    <path id="Path_130" data-name="Path 130" d="M173.193,41.423a.709.709,0,0,0,0-1.419h-7.549a.709.709,0,0,0,0,1.419Z" transform="translate(-131.871 -36.22)" fill="#6837fa"/>
    <path id="Path_131" data-name="Path 131" d="M62.912,19.276l-2.73-2.73a3.948,3.948,0,0,0-4.376-.823V6.477A6.484,6.484,0,0,0,49.33,0H25.765a6.484,6.484,0,0,0-6.477,6.477V41.949a6.484,6.484,0,0,0,6.477,6.477h1.852a.709.709,0,0,0,0-1.419H25.765a5.064,5.064,0,0,1-5.058-5.058V6.477a5.064,5.064,0,0,1,5.058-5.058H49.33a5.064,5.064,0,0,1,5.057,5.058V16.763l-.731.731a2.694,2.694,0,0,0-1.633-.335V7.782a4,4,0,0,0-4-4H44.813a.709.709,0,0,0-.709.709v.154A2.7,2.7,0,0,1,41.412,7.34H33.684a2.7,2.7,0,0,1-2.692-2.692V4.493a.709.709,0,0,0-.709-.709H27.069a4,4,0,0,0-4,4V40.644a4,4,0,0,0,4,4H48.025a4,4,0,0,0,4-4v-4.9l2.364-2.364v8.57a5.063,5.063,0,0,1-5.057,5.058H30.454a.709.709,0,1,0,0,1.419H49.33a6.484,6.484,0,0,0,6.476-6.477V31.961L58.3,29.469A2.688,2.688,0,0,0,61.965,25.8l.947-.947a3.949,3.949,0,0,0,0-5.578ZM41.936,36.566l.217-1.356,2.1,2.1-1.356.217a.835.835,0,0,1-.957-.956Zm4.042.462-3.548-3.548.3-1.9a4.289,4.289,0,0,1,.945-2.079c.022.02.045.039.066.06a1.465,1.465,0,0,1,0,2.071.709.709,0,0,0,1,1,1.465,1.465,0,0,1,2.071,2.071.709.709,0,0,0,1,1,1.466,1.466,0,0,1,2.071,0c.021.021.04.044.06.066a4.3,4.3,0,0,1-2.079.945Zm2.6-4.074a2.882,2.882,0,0,0-2.073-2.07l6.537-6.537,2.071,2.071Zm-.551,10.27H27.069a2.583,2.583,0,0,1-2.58-2.58V7.782a2.583,2.583,0,0,1,2.58-2.58H29.61a4.117,4.117,0,0,0,4.074,3.556h7.728A4.117,4.117,0,0,0,45.485,5.2h2.54a2.583,2.583,0,0,1,2.58,2.58v9.981c-.062.052-.123.106-.181.165a2.693,2.693,0,0,0-.434,3.234l-1.853,1.853a.709.709,0,0,0,1,1l1.785-1.785,1.112,1.112L45.5,29.879a2.865,2.865,0,0,0-.754-1.317c-.025-.026-.052-.05-.078-.074l2.464-2.464a.709.709,0,0,0-1-1l-3.188,3.188a5.7,5.7,0,0,0-1.609,3.151l-.8,4.982a2.253,2.253,0,0,0,2.582,2.581l4.982-.8a5.712,5.712,0,0,0,2.505-1.053v3.571a2.583,2.583,0,0,1-2.58,2.58Zm2.947-8.435c-.024-.026-.049-.053-.075-.078a2.865,2.865,0,0,0-1.319-.752l6.537-6.537,1.112,1.112Zm9.556-6.757a1.271,1.271,0,0,1-1.8,0l-7.3-7.3a1.27,1.27,0,0,1,1.8-1.8l7.3,7.3A1.271,1.271,0,0,1,60.528,28.032Zm1.381-4.18-.88.88-6.3-6.3.88-.88a2.526,2.526,0,0,1,3.572,0l2.73,2.73A2.529,2.529,0,0,1,61.909,23.851Z" transform="translate(0)" fill="#6837fa"/>
    <path id="Path_132" data-name="Path 132" d="M148.391,170.231a.709.709,0,0,0-1,0l-3.056,3.056a.709.709,0,0,0,0,1l3.056,3.056a.709.709,0,0,0,1-1l-2.555-2.555,2.555-2.555A.709.709,0,0,0,148.391,170.231Z" transform="translate(-113.028 -153.942)" fill="#6837fa"/>
    <path id="Path_133" data-name="Path 133" d="M255.515,177.347a.709.709,0,0,0,1,0l3.056-3.056a.709.709,0,0,0,0-1l-3.056-3.056a.709.709,0,0,0-1,1l2.555,2.555-2.555,2.555A.709.709,0,0,0,255.515,177.347Z" transform="translate(-213.696 -153.942)" fill="#6837fa"/>
    <path id="Path_134" data-name="Path 134" d="M203.984,145.867a.71.71,0,0,0-.857.522l-2.594,10.686a.709.709,0,1,0,1.379.335l2.594-10.686A.71.71,0,0,0,203.984,145.867Z" transform="translate(-164.085 -132.052)" fill="#6837fa"/>
  </g>
</svg>
