<svg xmlns="http://www.w3.org/2000/svg" width="44.167" height="44.167" viewBox="0 0 44.167 44.167">
  <g id="engineering" transform="translate(-1 -1)">
    <path id="Path_71" data-name="Path 71" d="M43.962,5V2.425h1.425V1H31.139V2.425h1.425V5l.394.2c.051.026.589.291,1.36.591a4.98,4.98,0,0,0,1.156,7.178,7.134,7.134,0,0,0-4.335,6.554V23.8a2.852,2.852,0,0,0,2.849,2.849v8.548H11.737L1.764,40.18l9.973,4.987H40.4a4.982,4.982,0,0,0,2.137-9.485V26.645A2.852,2.852,0,0,0,45.386,23.8V19.521a7.134,7.134,0,0,0-4.335-6.554A4.98,4.98,0,0,0,42.208,5.79c.771-.3,1.309-.566,1.36-.591ZM6.919,41.164,4.95,40.18,6.919,39.2ZM11.193,43.3,8.343,41.877V38.483l2.849-1.425ZM35.5,14.542l1.794,2.093-.927.927L35.16,14.749C35.271,14.676,35.383,14.606,35.5,14.542Zm1.406-.549a5.5,5.5,0,0,1,2.716,0l-1.358,1.584ZM32.564,43.742H12.618V40.892H32.564Zm0-4.274H12.618V36.618H32.564Zm2.849,4.274H33.988V36.618h1.425Zm8.548-3.562A3.566,3.566,0,0,1,40.4,43.742H36.838V36.618H40.4A3.566,3.566,0,0,1,43.962,40.18Zm0-20.659V23.8a1.426,1.426,0,0,1-1.425,1.425v-5.7H41.112V35.25a5,5,0,0,0-.712-.057H38.975V23.8H37.55v11.4H35.413V19.521H33.988v5.7A1.426,1.426,0,0,1,32.564,23.8V19.521a5.669,5.669,0,0,1,1.464-3.8l1.858,4.335,2.377-2.377,2.377,2.377L42.5,15.722A5.669,5.669,0,0,1,43.962,19.521Zm-2.6-4.774L40.16,17.561l-.927-.927,1.794-2.093c.116.065.228.135.339.207Zm-3.1-2.35a3.56,3.56,0,0,1-2.485-6.111,9.284,9.284,0,0,0,2.485.412,9.284,9.284,0,0,0,2.485-.412A3.56,3.56,0,0,1,38.263,12.4Zm4.274-8.29a12.21,12.21,0,0,1-4.274,1.166,12.237,12.237,0,0,1-4.274-1.166V2.425h8.548Z" transform="translate(-0.22)" fill="#6837fa"/>
    <path id="Path_72" data-name="Path 72" d="M5,5H6.425V6.425H5Z" transform="translate(-1.151 -1.151)" fill="#6837fa"/>
    <path id="Path_73" data-name="Path 73" d="M9,5h1.425V6.425H9Z" transform="translate(-2.301 -1.151)" fill="#6837fa"/>
    <path id="Path_74" data-name="Path 74" d="M13,5h1.425V6.425H13Z" transform="translate(-3.452 -1.151)" fill="#6837fa"/>
    <path id="Path_75" data-name="Path 75" d="M9.548,28.782a2.14,2.14,0,0,0,2.137,2.137h4.106l6.579,3.29v-3.29h2.137a2.14,2.14,0,0,0,2.137-2.137V25.22h2.849V1H1V25.22H9.548Zm15.672,0a.713.713,0,0,1-.712.712H20.946V31.9l-4.818-2.409H11.685a.713.713,0,0,1-.712-.712v-5.7a.713.713,0,0,1,.712-.712H24.508a.713.713,0,0,1,.712.712Zm-14.247-7.7V13.823H12.4v7.124h-.712A2.113,2.113,0,0,0,10.973,21.077Zm5.7-.131V16.672H18.1v4.274Zm5.7,0V10.973H23.8v9.973ZM2.425,2.425H28.07V6.7H2.425Zm0,21.371V8.124H28.07V23.8H26.645v-.712a2.134,2.134,0,0,0-1.425-2.006V9.548H20.946v11.4H19.521v-5.7H15.247v5.7H13.823V12.4H9.548V23.8Z" fill="#6837fa"/>
    <path id="Path_76" data-name="Path 76" d="M17,33H28.4v1.425H17Z" transform="translate(-4.602 -9.204)" fill="#6837fa"/>
    <path id="Path_77" data-name="Path 77" d="M17,37h8.548v1.425H17Z" transform="translate(-4.602 -10.355)" fill="#6837fa"/>
    <path id="Path_78" data-name="Path 78" d="M31,37h1.425v1.425H31Z" transform="translate(-8.629 -10.355)" fill="#6837fa"/>
    <path id="Path_79" data-name="Path 79" d="M5,28.7H9.274V23H5Zm1.425-4.274H7.849v2.849H6.425Z" transform="translate(-1.151 -6.328)" fill="#6837fa"/>
  </g>
</svg>
