<svg xmlns="http://www.w3.org/2000/svg" width="61" height="60" viewBox="0 0 61 60">
  <g id="linked_in_icon" data-name="linked in icon" transform="translate(-1259 -10407)">
    <ellipse id="Ellipse_26" data-name="Ellipse 26" cx="30.5" cy="30" rx="30.5" ry="30" transform="translate(1259 10407)" fill="#5b2aee"/>
    <g id="linked-in-logo-of-two-letters" transform="translate(1279 10401.084)">
      <g id="Group_12" data-name="Group 12" transform="translate(0 23.916)">
        <path id="Path_12" data-name="Path 12" d="M.814,194.728h3.26a.814.814,0,0,0,.814-.814v-14.25a.814.814,0,0,0-.814-.814H.814a.814.814,0,0,0-.814.814v14.25A.814.814,0,0,0,.814,194.728Z" transform="translate(0 -171.821)" fill="#fff"/>
        <path id="Path_13" data-name="Path 13" d="M.814,28.44h3.26a.814.814,0,0,0,.814-.814V24.73a.814.814,0,0,0-.814-.814H.814A.814.814,0,0,0,0,24.73v2.895A.814.814,0,0,0,.814,28.44Z" transform="translate(0 -23.916)" fill="#fff"/>
        <path id="Path_14" data-name="Path 14" d="M197.159,171.715a4.957,4.957,0,0,0-2.027-1.488,7.338,7.338,0,0,0-2.958-.583,7.244,7.244,0,0,0-5.566,2.507c-.3.333-.523.26-.523-.19v-1.086a.814.814,0,0,0-.814-.814h-2.912a.814.814,0,0,0-.814.814v14.25a.814.814,0,0,0,.814.814h3.26a.814.814,0,0,0,.814-.814v-4.956a15.943,15.943,0,0,1,.374-4.245,3.506,3.506,0,0,1,1.383-1.844,3.92,3.92,0,0,1,2.279-.7,2.909,2.909,0,0,1,1.7.487,2.715,2.715,0,0,1,1.018,1.366,14.568,14.568,0,0,1,.313,3.871v6.017a.814.814,0,0,0,.814.814h3.26a.814.814,0,0,0,.814-.814v-8.07a15.283,15.283,0,0,0-.27-3.288A5.385,5.385,0,0,0,197.159,171.715Z" transform="translate(-173.308 -163.034)" fill="#fff"/>
      </g>
    </g>
  </g>
</svg>
