<svg xmlns="http://www.w3.org/2000/svg" width="45.669" height="46.43" viewBox="0 0 45.669 46.43">
  <g id="marketing" transform="translate(-2 -1)">
    <path id="Path_25" data-name="Path 25" d="M28.64,48.745H27.118V41.286a.761.761,0,0,0-1.522,0v7.459H5.806V33.522h6.333a.761.761,0,0,0,0-1.522H5.045a.761.761,0,0,0-.761.761V48.745H2.761A.761.761,0,0,0,2,49.506v1.522a3.806,3.806,0,0,0,3.806,3.806H25.6A3.806,3.806,0,0,0,29.4,51.029V49.506A.761.761,0,0,0,28.64,48.745Zm-.761,2.283A2.283,2.283,0,0,1,25.6,53.312H24.073v-.761a.761.761,0,0,0-1.522,0v.761H8.85v-.761a.761.761,0,0,0-1.522,0v.761H5.806a2.283,2.283,0,0,1-2.283-2.283v-.761H27.879Z" transform="translate(0 -7.404)" fill="#6837fa"/>
    <path id="Path_26" data-name="Path 26" d="M52.806,7.522h1.522a.761.761,0,1,0,0-1.522H52.806a2.283,2.283,0,0,0-2.283,2.283v.761h-.761a.761.761,0,1,0,0,1.522h.761V12.85a.761.761,0,0,0,1.522,0V10.567h.761a.761.761,0,1,0,0-1.522h-.761V8.283A.761.761,0,0,1,52.806,7.522Z" transform="translate(-11.226 -1.194)" fill="#6837fa"/>
    <path id="Path_27" data-name="Path 27" d="M55.417,2H46.283A2.283,2.283,0,0,0,44,4.283V5.806a.761.761,0,0,0,1.522,0V4.283a.761.761,0,0,1,.761-.761h9.134a.761.761,0,0,1,.761.761v9.134a.761.761,0,0,1-.761.761H46.283a.761.761,0,0,1-.761-.761V8.85A.761.761,0,1,0,44,8.85v4.567A2.283,2.283,0,0,0,46.283,15.7h9.134A2.283,2.283,0,0,0,57.7,13.417V4.283A2.283,2.283,0,0,0,55.417,2Z" transform="translate(-10.032 -0.239)" fill="#6837fa"/>
    <path id="Path_28" data-name="Path 28" d="M49,41.045A3.045,3.045,0,1,0,52.045,38,3.045,3.045,0,0,0,49,41.045Zm4.567,0a1.522,1.522,0,1,1-1.522-1.522A1.522,1.522,0,0,1,53.567,41.045Z" transform="translate(-11.226 -8.837)" fill="#6837fa"/>
    <path id="Path_29" data-name="Path 29" d="M55.417,33H46.283A2.283,2.283,0,0,0,44,35.283v9.134A2.283,2.283,0,0,0,46.283,46.7h9.134A2.283,2.283,0,0,0,57.7,44.417V42.895a.761.761,0,1,0-1.522,0v1.522a.761.761,0,0,1-.761.761H46.283a.761.761,0,0,1-.761-.761V35.283a.761.761,0,0,1,.761-.761h9.134a.761.761,0,0,1,.761.761V39.85a.761.761,0,1,0,1.522,0V35.283A2.283,2.283,0,0,0,55.417,33Z" transform="translate(-10.032 -7.643)" fill="#6837fa"/>
    <path id="Path_30" data-name="Path 30" d="M24.358,11.976a.757.757,0,0,0,.746.03l4.567-2.283a.761.761,0,0,0,0-1.355L25.1,6.084a.761.761,0,0,0-1.1.677v4.567A.761.761,0,0,0,24.358,11.976Zm1.165-3.981,2.1,1.05-2.1,1.05Z" transform="translate(-5.255 -1.195)" fill="#6837fa"/>
    <path id="Path_31" data-name="Path 31" d="M24.85,14.7A6.85,6.85,0,1,0,18,7.85,6.85,6.85,0,0,0,24.85,14.7Zm0-12.178A5.328,5.328,0,1,1,19.522,7.85,5.328,5.328,0,0,1,24.85,2.522Z" transform="translate(-3.822 0)" fill="#6837fa"/>
    <path id="Path_32" data-name="Path 32" d="M36.761,21.567a.761.761,0,0,0,.609-.3l2.283-3.045a.761.761,0,1,0-1.218-.913l-2.283,3.045a.761.761,0,0,0,.609,1.218Z" transform="translate(-8.121 -3.822)" fill="#6837fa"/>
    <path id="Path_33" data-name="Path 33" d="M39.152,25.5a.761.761,0,0,0,1.066.152l3.045-2.283a.761.761,0,0,0-.913-1.218L39.3,24.436a.761.761,0,0,0-.152,1.066Z" transform="translate(-8.837 -5.016)" fill="#6837fa"/>
    <path id="Path_34" data-name="Path 34" d="M47.3,28.6a.761.761,0,0,0-.913-.609l-3.806.761a.765.765,0,1,0,.152,1.522h.152l3.806-.761A.761.761,0,0,0,47.3,28.6Z" transform="translate(-9.529 -6.443)" fill="#6837fa"/>
    <path id="Path_35" data-name="Path 35" d="M2.761,24.7h9.134a.761.761,0,0,0,.761-.761V11.761A.761.761,0,0,0,11.895,11H2.761A.761.761,0,0,0,2,11.761V23.94A.761.761,0,0,0,2.761,24.7Zm.761-12.178h7.611V23.178H3.522Z" transform="translate(0 -2.389)" fill="#6837fa"/>
    <path id="Path_36" data-name="Path 36" d="M10.283,15H8.761a.761.761,0,1,0,0,1.522h1.522a.761.761,0,0,0,0-1.522Z" transform="translate(-1.433 -3.344)" fill="#6837fa"/>
    <path id="Path_37" data-name="Path 37" d="M9.806,19H6.761a.761.761,0,1,0,0,1.522H9.806a.761.761,0,1,0,0-1.522Z" transform="translate(-0.955 -4.299)" fill="#6837fa"/>
    <path id="Path_38" data-name="Path 38" d="M9.806,23H6.761a.761.761,0,0,0,0,1.522H9.806a.761.761,0,0,0,0-1.522Z" transform="translate(-0.955 -5.255)" fill="#6837fa"/>
    <path id="Path_39" data-name="Path 39" d="M29.65,27.339a.764.764,0,0,0-1.324.761l3.357,5.808L19.5,38.475H19.39l-1.979,1.142-1.317.761a1.52,1.52,0,0,1-2.078-.556l-1.522-2.634a1.522,1.522,0,0,1,.571-2.009L15.7,33.657l1.9,3.3a.764.764,0,0,0,1.324-.761L16.962,32.8l9.552-7.878.312.54a.764.764,0,0,0,1.324-.761l-.761-1.317a.771.771,0,0,0-1.149-.206L15.584,31.959l-3.242,1.872a3.045,3.045,0,0,0-1.4,3.448l-.761.434a2.282,2.282,0,0,0,1.142,4.262,2.329,2.329,0,0,0,1.142-.3l.761-.434a2.953,2.953,0,0,0,1.332.792,2.885,2.885,0,0,0,.8.107,3,3,0,0,0,1.522-.411l.662-.381,1.522,2.641a2.281,2.281,0,1,0,3.95-2.283l-1.385-2.413L33.045,35a.763.763,0,0,0,.4-1.088ZM11.672,40.347a.76.76,0,1,1-.761-1.317l.662-.381.761,1.317Zm10.017,2.131a.76.76,0,0,1-1.317.761L18.85,40.6l1.264-.723h.061Z" transform="translate(-1.68 -5.255)" fill="#6837fa"/>
  </g>
</svg>
