<svg xmlns="http://www.w3.org/2000/svg" width="34.578" height="45.101" viewBox="0 0 34.578 45.101">
  <g id="meal_box_icon" data-name="meal box icon" transform="translate(-72 -16)">
    <path id="Path_67" data-name="Path 67" d="M106.465,35.754l-3.2-12.782a4.632,4.632,0,0,0,1.052-3.214c0-2.142-.969-3.758-2.255-3.758H75.007c-1.286,0-2.255,1.616-2.255,3.758s.969,3.758,2.255,3.758h.165L72.112,35.754a3.764,3.764,0,0,0-.112.911V60.349a.752.752,0,0,0,.752.752h33.074a.752.752,0,0,0,.752-.752V36.666a3.762,3.762,0,0,0-.112-.911Zm-1.391.912V58.535l-2.255-2.255V37.8a.752.752,0,1,0-1.5,0V56.28l-2.255,2.255V36.666a2.259,2.259,0,0,1,.067-.546l2.94-11.758,2.939,11.758a2.259,2.259,0,0,1,.067.547Zm-3.007,20.988,1.944,1.944h-3.887Zm.752-37.9c0,1.455-.565,2.255-.752,2.255s-.752-.8-.752-2.255.565-2.255.752-2.255S102.819,18.3,102.819,19.758Zm-28.564,0c0-1.53.6-2.255.752-2.255h25.232a6.171,6.171,0,0,0,0,4.51H75.007C74.858,22.013,74.255,21.288,74.255,19.758ZM73.5,36.666a2.254,2.254,0,0,1,.067-.547l3.15-12.6h24.008L97.669,35.754a3.765,3.765,0,0,0-.112.911V59.6H73.5Z" transform="translate(0 0)" fill="#6837fa"/>
    <path id="Path_68" data-name="Path 68" d="M142.765,224a.752.752,0,0,0-.752.752v2.255h-1.5v-2.255a.752.752,0,1,0-1.5,0v2.255h-1.5v-2.255a.752.752,0,1,0-1.5,0v3.007h0a.75.75,0,0,0,.078.336l1.415,2.829-.626,11.715a2.255,2.255,0,0,0,2.25,2.408H140.4a2.255,2.255,0,0,0,2.25-2.408l-.626-11.715,1.414-2.829a.75.75,0,0,0,.078-.336h0v-3.007A.752.752,0,0,0,142.765,224Zm-1.216,4.51-.752,1.5H138.72l-.752-1.5Zm-.6,14.794a.744.744,0,0,1-.55.239h-1.281a.752.752,0,0,1-.75-.805v-.013l.6-11.208h1.582l.6,11.208v.013A.744.744,0,0,1,140.949,243.3Z" transform="translate(-57.987 -188.456)" fill="#6837fa"/>
    <path id="Path_69" data-name="Path 69" d="M230.6,242.582l-.584-8.834v-9a.752.752,0,0,0-.752-.752c-4.591,0-5.235,7.877-5.26,8.212a.752.752,0,0,0,.413.728l1.088.544v.263l-.584,8.834a2.255,2.255,0,0,0,2.245,2.466h1.188a2.255,2.255,0,0,0,2.246-2.466Zm-4.35-13.854c.578-1.7,1.337-2.734,2.263-3.087v7.38h-1.5a.752.752,0,0,0-.415-.672l-1.036-.518a16.517,16.517,0,0,1,.692-3.1Zm2.663,14.569a.743.743,0,0,1-.558.247h-1.188a.752.752,0,0,1-.748-.827c0-.008,0-.017,0-.025l.54-8.168h1.6l.54,8.169c0,.008,0,.017,0,.025a.743.743,0,0,1-.191.579Z" transform="translate(-137.718 -188.456)" fill="#6837fa"/>
  </g>
</svg>
