<svg xmlns="http://www.w3.org/2000/svg" width="35.715" height="45.262" viewBox="0 0 35.715 45.262">
  <g id="provident_fund_icon" data-name="provident fund icon" transform="translate(-54)">
    <g id="XMLID_1278_" transform="translate(54 0)">
      <path id="XMLID_1279_" d="M225.763,47.647a1.083,1.083,0,0,1,1.164.975.884.884,0,1,0,1.768,0,2.775,2.775,0,0,0-2.048-2.615v-.123a.884.884,0,0,0-1.768,0v.123a2.775,2.775,0,0,0-2.048,2.615,2.846,2.846,0,0,0,2.932,2.743.99.99,0,1,1-1.164.975.884.884,0,1,0-1.768,0,2.775,2.775,0,0,0,2.048,2.615v.123a.884.884,0,0,0,1.768,0v-.123A2.775,2.775,0,0,0,228.7,52.34a2.846,2.846,0,0,0-2.932-2.743.99.99,0,1,1,0-1.95Z" transform="translate(-207.906 -41.022)" fill="#1f238e"/>
      <path id="XMLID_1303_" d="M88.831,24.243h-4.04A9.5,9.5,0,0,0,75.3,33.734v3.674l-2.557,2.557V18.877a9.466,9.466,0,0,0,8.1-12.4.884.884,0,0,0-1.678.556,7.682,7.682,0,1,1-5.015-4.923A.884.884,0,1,0,74.67.425a9.46,9.46,0,1,0-3.7,18.451V32.343l-2.557-2.557V26.112a9.5,9.5,0,0,0-9.492-9.492h-4.04A.884.884,0,0,0,54,17.5v4.04a9.5,9.5,0,0,0,9.492,9.492h3.674l3.808,3.808v8.651H62.119a.884.884,0,1,0,0,1.768H81.6a.884.884,0,1,0,0-1.768H72.741V42.466l3.808-3.808h3.674a9.5,9.5,0,0,0,9.492-9.492v-4.04A.884.884,0,0,0,88.831,24.243ZM63.492,29.268a7.732,7.732,0,0,1-7.724-7.724V18.388h3.156a7.732,7.732,0,0,1,7.724,7.724v1.906l-3.9-3.9a.884.884,0,0,0-1.25,1.25l3.9,3.9Zm24.455-.1a7.732,7.732,0,0,1-7.724,7.724H78.317l3.9-3.9a.884.884,0,1,0-1.25-1.25l-3.9,3.9V33.735a7.732,7.732,0,0,1,7.724-7.724h3.156Z" transform="translate(-54 0)" fill="#6837fa"/>
      <path id="XMLID_1306_" d="M315.264,29.968a.884.884,0,1,0-.625-.259A.89.89,0,0,0,315.264,29.968Z" transform="translate(-291.362 -25.707)" fill="#1f238e"/>
    </g>
  </g>
</svg>
