<svg xmlns="http://www.w3.org/2000/svg" width="45.082" height="45.082" viewBox="0 0 45.082 45.082">
  <g id="_time_icon" data-name=" time icon" transform="translate(-32 -32)">
    <path id="Path_63" data-name="Path 63" d="M163.27,124.059v-3.254a.805.805,0,1,0-1.61,0v3.254a9.654,9.654,0,0,0-6.568,15.861l-2.857,2.857a.805.805,0,0,0,1.139,1.139l2.857-2.857a9.658,9.658,0,1,0,7.04-17Zm-.805,17.677a8.05,8.05,0,1,1,8.05-8.05A8.05,8.05,0,0,1,162.465,141.736Z" transform="translate(-107.924 -79.145)" fill="#6837fa"/>
    <ellipse id="Ellipse_9" data-name="Ellipse 9" cx="1.124" cy="0.749" rx="1.124" ry="0.749" transform="translate(56.788 52.294)" fill="#6837fa"/>
    <ellipse id="Ellipse_10" data-name="Ellipse 10" cx="1.124" cy="0.749" rx="1.124" ry="0.749" transform="translate(50.047 52.294)" fill="#6837fa"/>
    <path id="Path_64" data-name="Path 64" d="M223.5,264.028a.807.807,0,0,0-1.02.5,2.551,2.551,0,0,1-4.915,0,.805.805,0,1,0-1.526.513,4.159,4.159,0,0,0,7.968,0A.8.8,0,0,0,223.5,264.028Z" transform="translate(-165.477 -208.637)" fill="#6837fa"/>
    <path id="Path_65" data-name="Path 65" d="M83.321,64a19.321,19.321,0,1,0,19.321,19.321A19.343,19.343,0,0,0,83.321,64Zm16.906,20.126h.786a17.643,17.643,0,0,1-4.618,11.13l-.55-.55a.805.805,0,0,0-1.139,1.139l.55.55a17.643,17.643,0,0,1-11.13,4.618v-.786a.805.805,0,0,0-1.61,0v.786a17.643,17.643,0,0,1-11.13-4.618l.55-.55A.805.805,0,0,0,70.8,94.706l-.55.55a17.643,17.643,0,0,1-4.618-11.13h.786a.805.805,0,0,0,0-1.61h-.786a17.643,17.643,0,0,1,4.618-11.13l.55.55A.805.805,0,0,0,71.936,70.8l-.55-.55a17.643,17.643,0,0,1,11.13-4.618v.786a.805.805,0,0,0,1.61,0v-.786a17.643,17.643,0,0,1,11.13,4.618l-.55.55a.805.805,0,0,0,1.139,1.139l.55-.55a17.643,17.643,0,0,1,4.618,11.13h-.786a.805.805,0,0,0,0,1.61Z" transform="translate(-28.78 -28.78)" fill="#6837fa"/>
    <path id="Path_66" data-name="Path 66" d="M54.541,32A22.541,22.541,0,1,0,77.082,54.541,22.541,22.541,0,0,0,54.541,32Zm0,43.472A20.931,20.931,0,1,1,75.472,54.541,20.955,20.955,0,0,1,54.541,75.472Z" fill="#6837fa"/>
  </g>
</svg>
