<svg xmlns="http://www.w3.org/2000/svg" width="192.082" height="21.524">
    <g data-name="Group 1428">
        <text data-name="My Order" transform="translate(54.082 17)" style="font-size:18px;font-family:Raleway-SemiBold,Raleway;font-weight:600;letter-spacing:.048em;fill:#36383b"><tspan x="0" y="0">Order discount</tspan></text>
        <path data-name="Path 326" d="M6.893 73.969a1.866 1.866 0 0 0 2.776 0l9.5-10.235a3.028 3.028 0 0 0 .619-1.017 9.332 9.332 0 0 0 2.7.435c2.026-.011 2.7-.966 2.918-1.537s.378-1.752-1.044-3.312l-.047-.051a11.3 11.3 0 0 0-3.616-2.475 17.08 17.08 0 0 0-.8-.328v-.017a2.236 2.236 0 0 0-2.12-2.283l-5.694-.085a2.671 2.671 0 0 0-2.01.882L.575 64.18a2.232 2.232 0 0 0 0 2.99zm7.326-17.242a1.544 1.544 0 0 1 2.3 0 1.828 1.828 0 0 1 .457 1.492 11.106 11.106 0 0 0 2.167 1.272c.283.124.556.237.819.333l-.031-2.464c.047.023.089.04.136.062a9.831 9.831 0 0 1 3.08 2.091l.031.034c.682.752.756 1.232.7 1.379-.178.458-2.094.865-5-.441a11.023 11.023 0 0 1-2.293-1.373c-.021.028-.047.057-.068.085a1.544 1.544 0 0 1-2.3 0 1.845 1.845 0 0 1 .002-2.471z" transform="translate(0 -53.064)" style="fill:#36383b"/>
    </g>
</svg>
