<svg data-name="Group 1499" xmlns="http://www.w3.org/2000/svg" width="26.277" height="17.181">
    <path data-name="Path 348" d="M25.519 109.482a.8.8 0 0 0 .758-.831v-4.434a.8.8 0 0 0-.758-.831H.758a.8.8 0 0 0-.758.831v4.434a.8.8 0 0 0 .758.831 2.5 2.5 0 0 1 0 4.988.8.8 0 0 0-.758.83v4.434a.8.8 0 0 0 .758.831h24.761a.8.8 0 0 0 .758-.831V115.3a.8.8 0 0 0-.758-.831 2.5 2.5 0 0 1 0-4.988zm-.758 6.567v2.851H8.843v-2.49a.761.761 0 1 0-1.516 0v2.49H1.516v-2.855a4.252 4.252 0 0 0 0-8.146v-2.855h5.811v2.494a.761.761 0 1 0 1.516 0v-2.494h15.918v2.856a4.252 4.252 0 0 0 0 8.146z" transform="translate(0 -103.385)" style="fill:#36383b"/>
</svg>
