<svg xmlns="http://www.w3.org/2000/svg" width="20.988" height="15.741">
    <path data-name="Icon awesome-image" d="M19.02 20.241H1.968A1.968 1.968 0 0 1 0 18.273V6.468A1.968 1.968 0 0 1 1.968 4.5H19.02a1.968 1.968 0 0 1 1.968 1.968v11.805a1.968 1.968 0 0 1-1.968 1.968zM4.591 6.8a2.3 2.3 0 1 0 2.3 2.3 2.3 2.3 0 0 0-2.3-2.3zM2.623 17.617h15.741v-4.591l-3.587-3.587a.492.492 0 0 0-.7 0l-5.551 5.555-2.275-2.276a.492.492 0 0 0-.7 0L2.623 15.65z" transform="translate(0 -4.5)" style="fill:#36383b"/>
</svg>
