<svg xmlns="http://www.w3.org/2000/svg" width="29.149" height="20.404">
    <path data-name="Icon awesome-truck-moving" d="m28.3 11.6-2.667-2.664a2.916 2.916 0 0 0-2.063-.852h-1.708V3.707A1.456 1.456 0 0 0 20.4 2.25H1.457A1.456 1.456 0 0 0 0 3.707v15.3a3.635 3.635 0 0 0 6.559 2.168 3.635 3.635 0 0 0 6.559-2.168 3.839 3.839 0 0 0-.073-.729h7.433a3.5 3.5 0 0 0-.073.729 3.644 3.644 0 0 0 7.287 0 3.838 3.838 0 0 0-.073-.729h.8a.731.731 0 0 0 .729-.729v-3.89A2.905 2.905 0 0 0 28.3 11.6zM3.644 20.468A1.457 1.457 0 1 1 5.1 19.011a1.462 1.462 0 0 1-1.456 1.457zm5.83 0a1.457 1.457 0 1 1 1.457-1.457 1.462 1.462 0 0 1-1.458 1.457zm12.388-10.2h1.708a.723.723 0 0 1 .515.214l1.972 1.972h-4.195zm2.186 10.2a1.457 1.457 0 1 1 1.457-1.457 1.462 1.462 0 0 1-1.457 1.457z" transform="translate(0 -2.25)" style="fill:#36383b"/>
</svg>
