<svg xmlns="http://www.w3.org/2000/svg" width="14.239" height="16.675">
    <path data-name="Icon awesome-list-ul" d="M14.063 15.99H8.338a.691.691 0 0 0-.758.593v1.186a.691.691 0 0 0 .758.593h5.43c.328-.021.3-.536.3-.864v-.915c-.005-.328-.019-.576-.005-.593zm5.673-11.852-11.4-.007a.691.691 0 0 0-.758.593V5.91a.691.691 0 0 0 .758.593l11.133.067c.359-.037.341-.32.341-.648l.065-.611c-.17-1.406.28-1.173-.139-1.173zM23.5 10.06H8.338a.691.691 0 0 0-.758.593v1.186a.691.691 0 0 0 .758.593H23.5a.691.691 0 0 0 .758-.593v-1.186a.691.691 0 0 0-.758-.593z" transform="rotate(-90 10.066 14.189)" style="fill:#36383b"/>
</svg>
