<svg xmlns="http://www.w3.org/2000/svg" width="14.009" height="24.91">
    <path data-name="Icon awesome-dollar-sign" d="M10.179 11.356 4.924 9.818a1.435 1.435 0 0 1 .4-2.812h3.23a2.97 2.97 0 0 1 1.664.511.758.758 0 0 0 .949-.1l1.693-1.652a.789.789 0 0 0-.088-1.192 6.88 6.88 0 0 0-4.208-1.46V.778A.781.781 0 0 0 7.785 0H6.228a.781.781 0 0 0-.778.778v2.336h-.122a5.331 5.331 0 0 0-5.3 5.819 5.57 5.57 0 0 0 4.077 4.7l4.987 1.46a1.435 1.435 0 0 1-.4 2.812H5.46a2.97 2.97 0 0 1-1.66-.512.758.758 0 0 0-.949.1l-1.697 1.652a.789.789 0 0 0 .088 1.192A6.88 6.88 0 0 0 5.45 21.8v2.335a.781.781 0 0 0 .778.778h1.557a.781.781 0 0 0 .778-.778v-2.348a5.5 5.5 0 0 0 5.143-3.537 5.342 5.342 0 0 0-3.527-6.894z" transform="translate(-.003)" style="fill:#36383b"/>
</svg>
