<svg xmlns="http://www.w3.org/2000/svg" width="31" height="26.452">
    <path data-name="Icon awesome-user-edit" d="M10.85 13.225a6.416 6.416 0 0 0 6.2-6.613A6.416 6.416 0 0 0 10.85 0a6.416 6.416 0 0 0-6.2 6.613 6.416 6.416 0 0 0 6.2 6.612zm4.34 1.653h-.809a7.956 7.956 0 0 1-7.062 0H6.51A6.739 6.739 0 0 0 0 21.822v2.149a2.407 2.407 0 0 0 2.325 2.48h13.316a2.635 2.635 0 0 1-.126-1.1l.329-3.146.058-.573.383-.408 3.744-3.993a6.283 6.283 0 0 0-4.839-2.351zm2.194 7.506-.329 3.151a.8.8 0 0 0 .853.909l2.95-.351 6.68-7.124-3.473-3.7-6.68 7.119zm13.277-8.493-1.836-1.958a1.11 1.11 0 0 0-1.637 0l-1.831 1.953-.2.212 3.478 3.7 2.025-2.159a1.3 1.3 0 0 0 0-1.751z" style="fill:#36383b"/>
</svg>
