<svg xmlns="http://www.w3.org/2000/svg" width="26.135" height="20.911">
    <path data-name="Icon awesome-user-cog" d="M24.933 15.246a4.791 4.791 0 0 0 0-1.74l1.054-.609a.3.3 0 0 0 .135-.347 6.129 6.129 0 0 0-1.356-2.344.3.3 0 0 0-.368-.057l-1.054.609a4.8 4.8 0 0 0-1.507-.87V8.671a.3.3 0 0 0-.233-.29 6.162 6.162 0 0 0-2.7 0 .3.3 0 0 0-.233.29v1.217a4.8 4.8 0 0 0-1.507.87l-1.054-.609a.3.3 0 0 0-.368.057 6.129 6.129 0 0 0-1.356 2.344.3.3 0 0 0 .135.347l1.054.609a4.791 4.791 0 0 0 0 1.74l-1.054.609a.3.3 0 0 0-.135.347 6.16 6.16 0 0 0 1.356 2.344.3.3 0 0 0 .368.057l1.054-.609a4.8 4.8 0 0 0 1.507.87v1.217a.3.3 0 0 0 .233.29 6.162 6.162 0 0 0 2.7 0 .3.3 0 0 0 .233-.29v-1.217a4.8 4.8 0 0 0 1.507-.87l1.056.606a.3.3 0 0 0 .368-.057 6.129 6.129 0 0 0 1.354-2.343.3.3 0 0 0-.135-.347l-1.054-.609zm-4.676 1.111a1.981 1.981 0 1 1 1.981-1.981 1.983 1.983 0 0 1-1.981 1.981zm-11.109-5.9a5.228 5.228 0 1 0-5.227-5.229 5.227 5.227 0 0 0 5.227 5.227zm8.217 9.25c-.094-.049-.188-.106-.278-.159l-.323.188a1.6 1.6 0 0 1-1.981-.3 7.447 7.447 0 0 1-1.642-2.843 1.6 1.6 0 0 1 .731-1.866l.323-.188q-.006-.159 0-.319l-.323-.188a1.6 1.6 0 0 1-.731-1.866c.037-.118.09-.237.131-.355-.155-.012-.306-.049-.466-.049h-.682a7.109 7.109 0 0 1-5.955 0h-.68A5.49 5.49 0 0 0 0 17.251v1.7a1.961 1.961 0 0 0 1.96 1.96h14.376a1.958 1.958 0 0 0 1.111-.347 1.591 1.591 0 0 1-.082-.482z" style="fill:#36383b"/>
</svg>
