<svg xmlns="http://www.w3.org/2000/svg" width="24.231" height="24.231">
    <defs>
        <style>
            .cls-1{fill:#36383b}
        </style>
    </defs>
    <g id="coupon" transform="translate(-.001)">
        <path id="XMLID_1468_" class="cls-1" d="m23.774 3.683.319-.319a.473.473 0 0 0-.669-.669l-.319.319-.319-.319a.473.473 0 0 0-.335-.139h-.521L19.514.139A.473.473 0 0 0 19.179 0H1.705A1.706 1.706 0 0 0 0 1.7v8.869a1.706 1.706 0 0 0 1.7 1.7h4.128L3.056 15.05a1.7 1.7 0 0 0 0 2.41l6.271 6.271a1.7 1.7 0 0 0 2.41 0l4.7-4.7a.473.473 0 1 0-.669-.669l-4.7 4.7a.758.758 0 0 1-1.072 0l-6.271-6.271a.758.758 0 0 1 0-1.072L15.942 3.5h6.313l.18.18-1.093 1.097a1.42 1.42 0 1 0 .669.669l1.094-1.094.18.18v6.313l-4.508 4.509a.473.473 0 0 0 .669.669l4.647-4.647a.473.473 0 0 0 .139-.335V4.336A.473.473 0 0 0 24.093 4zM8.5 8.492a.473.473 0 1 1 .473-.473.474.474 0 0 1-.473.473zm7.247-5.936a.473.473 0 0 0-.335.139l-5.5 5.5A1.423 1.423 0 1 0 8.68 9.427l-1.9 1.9H1.705a.759.759 0 0 1-.758-.758V1.7a.759.759 0 0 1 .758-.753h17.278l1.609 1.609zm4.983 3.975a.473.473 0 1 1 .287-.849.426.426 0 0 0 .088.088.472.472 0 0 1-.375.76z"/>
        <path id="XMLID_1527_" class="cls-1" d="M269.181 222.891a.473.473 0 0 0 .335-.139l1.071-1.071a.473.473 0 1 0-.669-.669l-.736.736-2.343-2.342a.473.473 0 1 0-.669.669l2.677 2.677a.473.473 0 0 0 .334.139z" transform="translate(-253.439 -208.89)"/>
        <path id="XMLID_1528_" class="cls-1" d="M321.363 151.372a.473.473 0 0 0-.669 0l-.6.6-.669-.669.6-.6a.473.473 0 0 0-.669-.669l-.6.6-.669-.669.6-.6a.473.473 0 1 0-.669-.669l-.937.937a.473.473 0 0 0 0 .669l2.677 2.677a.473.473 0 0 0 .669 0l.937-.937a.473.473 0 0 0-.001-.67z" transform="translate(-301.941 -141.526)"/>
        <path id="XMLID_1531_" class="cls-1" d="M223.167 268.637a.473.473 0 1 0 .43-.843l-3.547-1.807a.473.473 0 0 0-.637.636l1.807 3.547a.473.473 0 0 0 .843-.43l-.145-.285.964-.964zm-1.7-.068-.549-1.078 1.078.549z" transform="translate(-208.979 -253.349)"/>
        <path id="XMLID_1532_" class="cls-1" d="M155.129 316.759a.473.473 0 1 0 .669.669l.669-.669a1.42 1.42 0 0 0-1.923-2.086.477.477 0 0 0-.05.043l-.035.035a.473.473 0 0 1-.669-.669l.669-.669a.473.473 0 1 0-.669-.669l-.669.669a1.42 1.42 0 0 0 2.007 2.009.473.473 0 1 1 .669.669z" transform="translate(-145.478 -297.81)"/>
        <path id="XMLID_1533_" class="cls-1" d="M95.68 63.325a.473.473 0 0 0-.645.179l-3.053 5.407a.473.473 0 1 0 .824.465l3.053-5.407a.473.473 0 0 0-.179-.644z" transform="translate(-87.57 -60.27)"/>
        <path id="XMLID_1536_" class="cls-1" d="M68.009 61.414a1.42 1.42 0 1 0-1.42 1.42 1.422 1.422 0 0 0 1.42-1.42zm-1.893 0a.473.473 0 1 1 .473.473.474.474 0 0 1-.473-.473z" transform="translate(-62.084 -57.155)"/>
        <path id="XMLID_1537_" class="cls-1" d="M362.464 353.319a.474.474 0 1 0 .335.139.476.476 0 0 0-.335-.139z" transform="translate(-344.858 -336.598)"/>
    </g>
</svg>
