<svg xmlns="http://www.w3.org/2000/svg" width="25" height="21.06">
    <path data-name="Path 284" d="M24.479 190.41h-.521v-19.086a.6.6 0 0 0-.521-.658h-3.125a.6.6 0 0 0-.521.658v19.086h-2.083v-11.188a.6.6 0 0 0-.521-.658h-3.125a.6.6 0 0 0-.521.658v11.188h-2.083v-13.821a.6.6 0 0 0-.521-.658H7.812a.6.6 0 0 0-.521.658v13.821H5.208v-7.239a.6.6 0 0 0-.521-.658H1.563a.6.6 0 0 0-.521.658v7.239H.521a.676.676 0 0 0 0 1.316h23.958a.676.676 0 0 0 0-1.316z" transform="translate(0 -170.666)" style="fill:#36383b"/>
</svg>
