<svg xmlns="http://www.w3.org/2000/svg" width="23.8" height="16.999">
    <path data-name="Icon zocial-cart" d="M-2.07 5.657a.951.951 0 0 1 .276-.7.949.949 0 0 1 .7-.276H3.9a.974.974 0 0 1 .606.2.944.944 0 0 1 .351.542l.51 2.082h14.322l.149-.446a.879.879 0 0 1 .914-.68.654.654 0 0 1 .276.043.915.915 0 0 1 .51.34.928.928 0 0 1 .191.574 1.187 1.187 0 0 1-.042.276l-2.507 8.352a.914.914 0 0 1-.34.51.934.934 0 0 1-.574.191H6.387a.944.944 0 0 1-.606-.212.992.992 0 0 1-.351-.532L3.136 6.614h-4.229a.961.961 0 0 1-.691-.276.907.907 0 0 1-.286-.681zm7.9 3.782 1.317 5.27h10.397l.042-.191 1.531-5.079H5.835zm.892 10.285a1.865 1.865 0 0 1 .584-1.381A1.919 1.919 0 0 1 8.7 17.77a1.955 1.955 0 0 1 0 3.909 1.919 1.919 0 0 1-1.392-.573 1.867 1.867 0 0 1-.581-1.381zM8.109 11.1h3.527v1.954h-3.1zm5.206 1.955.021-1.954h3.442l-.51 1.954zm.786 6.672a1.865 1.865 0 0 1 .585-1.381 1.917 1.917 0 0 1 1.392-.574 1.955 1.955 0 0 1 0 3.909 1.918 1.918 0 0 1-1.392-.573 1.865 1.865 0 0 1-.586-1.383z" transform="translate(2.07 -4.68)" style="fill:#36383b"/>
</svg>
