<svg xmlns="http://www.w3.org/2000/svg" width="21.654" height="18.001">
    <path data-name="Icon awesome-store" d="M21.167 4.17 18.885.527A1.125 1.125 0 0 0 17.932 0H3.729a1.125 1.125 0 0 0-.953.527L.494 4.17a3.137 3.137 0 0 0 2.067 4.8 3.654 3.654 0 0 0 .482.03 3.472 3.472 0 0 0 2.595-1.167 3.474 3.474 0 0 0 5.189 0 3.474 3.474 0 0 0 5.189 0A3.483 3.483 0 0 0 18.611 9a3.614 3.614 0 0 0 .482-.032 3.133 3.133 0 0 0 2.074-4.798zm-2.549 5.956a4.461 4.461 0 0 1-1.037-.134V13.5H4.08V9.992a4.657 4.657 0 0 1-1.037.134 4.744 4.744 0 0 1-.633-.042 4.421 4.421 0 0 1-.577-.127v6.919A1.124 1.124 0 0 0 2.959 18h15.75a1.124 1.124 0 0 0 1.125-1.125V9.957a3.59 3.59 0 0 1-.577.127 4.889 4.889 0 0 1-.639.041z" transform="translate(-.004)" style="fill:#36383b"/>
</svg>
