<svg xmlns="http://www.w3.org/2000/svg" width="20.552" height="23.488">
    <path data-name="Icon awesome-bell" d="M10.276 23.488a2.935 2.935 0 0 0 2.935-2.936h-5.87a2.935 2.935 0 0 0 2.935 2.936zm9.881-6.868c-.886-.952-2.545-2.385-2.545-7.078a7.244 7.244 0 0 0-5.869-7.118v-.956a1.467 1.467 0 1 0-2.934 0v.956A7.244 7.244 0 0 0 2.94 9.542c0 4.693-1.658 6.126-2.545 7.078a1.433 1.433 0 0 0-.395 1 1.469 1.469 0 0 0 1.473 1.468h17.606a1.469 1.469 0 0 0 1.473-1.468 1.432 1.432 0 0 0-.395-1z" style="fill:#36383b"/>
</svg>
