<svg xmlns="http://www.w3.org/2000/svg" width="20.253" height="23.146">
    <path data-name="Icon awesome-hand-paper" d="M18.48 5.787a1.837 1.837 0 0 0-1.844 1.844v3.943h-.362V3.607a1.837 1.837 0 0 0-1.844-1.844 1.808 1.808 0 0 0-1.773 1.808v8H12.3V1.844A1.837 1.837 0 0 0 10.453 0 1.808 1.808 0 0 0 8.68 1.808v9.765h-.362V3.652a1.837 1.837 0 0 0-1.843-1.843A1.808 1.808 0 0 0 4.7 3.617v10.668l-1.429-1.967a1.808 1.808 0 1 0-2.925 2.127l5.678 7.808a2.17 2.17 0 0 0 1.755.894h8.933a2.17 2.17 0 0 0 2.112-1.673l1.2-5.093a8.68 8.68 0 0 0 .231-1.988v-6.8a1.808 1.808 0 0 0-1.775-1.806z" style="fill:#36383b"/>
</svg>
