<svg xmlns="http://www.w3.org/2000/svg" width="23.347" height="20.429">
    <path data-name="Icon awesome-gift" d="M1.459 21.22a1.458 1.458 0 0 0 1.459 1.459h7.3v-7.3H1.459zm11.674 1.459h7.3a1.458 1.458 0 0 0 1.459-1.459v-5.837h-8.759zm8.755-14.592h-1.92a3.976 3.976 0 0 0 .461-1.824 4.019 4.019 0 0 0-4.013-4.013c-1.9 0-3.124.971-4.7 3.114-1.573-2.143-2.8-3.114-4.7-3.114A4.019 4.019 0 0 0 3.01 6.263a3.92 3.92 0 0 0 .46 1.824H1.459A1.458 1.458 0 0 0 0 9.546v3.648a.732.732 0 0 0 .73.73h21.888a.732.732 0 0 0 .73-.73V9.546a1.458 1.458 0 0 0-1.46-1.459zm-14.87 0a1.824 1.824 0 0 1 0-3.648c.907 0 1.578.15 3.926 3.648H7.018zm9.4 0H12.49c2.344-3.488 3-3.648 3.926-3.648a1.824 1.824 0 0 1 0 3.648z" transform="translate(0 -2.25)" style="fill:#36383b"/>
</svg>
