<svg xmlns="http://www.w3.org/2000/svg" width="16.593" height="18.963">
    <path data-name="Icon awesome-calendar-day" d="M0 17.185a1.778 1.778 0 0 0 1.778 1.778h13.037a1.778 1.778 0 0 0 1.778-1.778V7.111H0zm2.37-7.111a.594.594 0 0 1 .593-.593h3.556a.594.594 0 0 1 .593.593v3.556a.594.594 0 0 1-.593.593H2.963a.594.594 0 0 1-.593-.593zm12.445-7.7h-1.778V.593A.594.594 0 0 0 12.445 0h-1.186a.594.594 0 0 0-.593.593V2.37h-4.74V.593A.594.594 0 0 0 5.333 0H4.148a.594.594 0 0 0-.593.593V2.37H1.778A1.778 1.778 0 0 0 0 4.148v1.778h16.593V4.148a1.778 1.778 0 0 0-1.778-1.778z" style="fill:#36383b"/>
</svg>
