<svg xmlns="http://www.w3.org/2000/svg" width="21.097" height="21.097">
    <defs>
        <style>
            .cls-1{fill:none;stroke:#36383b;stroke-linecap:round;stroke-linejoin:round;stroke-width:2px}
        </style>
    </defs>
    <g id="Icon_feather-instagram" data-name="Icon feather-instagram" transform="translate(-2 -2)">
        <path id="Path_409" data-name="Path 409" class="cls-1" d="M7.774 3h9.548A4.774 4.774 0 0 1 22.1 7.774v9.548a4.774 4.774 0 0 1-4.777 4.778H7.774A4.774 4.774 0 0 1 3 17.323V7.774A4.774 4.774 0 0 1 7.774 3z"/>
        <path id="Path_410" data-name="Path 410" class="cls-1" d="M19.662 15.194a3.819 3.819 0 1 1-3.218-3.218 3.819 3.819 0 0 1 3.218 3.218z" transform="translate(-3.295 -3.247)"/>
        <path id="Path_411" data-name="Path 411" class="cls-1" d="M26.25 9.75h0" transform="translate(-8.45 -2.453)"/>
    </g>
</svg>
