<svg xmlns="http://www.w3.org/2000/svg" width="21.016" height="21.016">
    <path data-name="Icon ionic-logo-facebook" d="M23.411 4.5H5.605A1.106 1.106 0 0 0 4.5 5.605v17.806a1.106 1.106 0 0 0 1.105 1.105h8.9v-7.923h-2.39v-2.919h2.392v-2.158a3.8 3.8 0 0 1 4.1-3.993c1.105 0 2.293.083 2.57.12v2.7H19.34c-1.256 0-1.5.594-1.5 1.47v1.861h2.992l-.391 2.919h-2.6v7.923h5.567a1.106 1.106 0 0 0 1.105-1.105V5.605A1.106 1.106 0 0 0 23.411 4.5z" transform="translate(-4 -4)" style="fill:#36383b;stroke:#36383b"/>
</svg>
