<svg xmlns="http://www.w3.org/2000/svg" width="20.409" height="20.804">
    <path data-name="Icon ionic-logo-google" d="m23.945 12.181-.105-.445h-9.679v4.1h5.783a5.788 5.788 0 0 1-5.663 4.352 6.772 6.772 0 0 1-4.557-1.816 6.506 6.506 0 0 1-1.941-4.592 6.71 6.71 0 0 1 1.906-4.59 6.483 6.483 0 0 1 4.527-1.771 5.9 5.9 0 0 1 3.852 1.5l2.911-2.9a10.3 10.3 0 0 0-6.858-2.641 10.6 10.6 0 0 0-7.5 3.051 10.559 10.559 0 0 0-2.961 7.348A10.453 10.453 0 0 0 6.5 21.01a10.858 10.858 0 0 0 7.829 3.176 9.657 9.657 0 0 0 7.033-2.956 10.384 10.384 0 0 0 2.7-7.193 11.978 11.978 0 0 0-.117-1.856z" transform="translate(-3.656 -3.382)" style="fill:#36383b"/>
</svg>
