<svg xmlns="http://www.w3.org/2000/svg" width="21.703" height="22.002">
    <path data-name="Path 408" d="M78.785 111.689A11.282 11.282 0 0 0 68 119.424h1.6a9.217 9.217 0 0 1 .594-1.279h3.075a12.958 12.958 0 0 0-.336 1.279h1.557a12.023 12.023 0 0 1 .393-1.279h2.968v1.279h1.5v-1.279h3.206a11.22 11.22 0 0 1 .44 1.279h1.558a12.583 12.583 0 0 0-.376-1.279h3.193a9.214 9.214 0 0 1 .594 1.279h1.595a11.278 11.278 0 0 0-10.776-7.735zm2.27 1.769a9.8 9.8 0 0 1 5.275 3.183h-2.79a10.551 10.551 0 0 0-2.486-3.183zm-4.979.111a9.989 9.989 0 0 0-2.216 3.072h-2.62a9.786 9.786 0 0 1 4.835-3.072zm3.28.483a8.669 8.669 0 0 1 2.427 2.589h-2.428zm-1.5.01v2.579h-2.271a7.963 7.963 0 0 1 2.266-2.579zm-9.4 6.816a.643.643 0 0 0-.376.1.309.309 0 0 0-.151.259.993.993 0 0 0 .071.316l.8 2.3c.024.069.052.146.084.228a.785.785 0 0 0 .116.219.525.525 0 0 0 .212.148.891.891 0 0 0 .336.054.768.768 0 0 0 .4-.091.548.548 0 0 0 .212-.2 3.6 3.6 0 0 0 .148-.339l.715-2.014.712 2.025c.059.15.106.261.144.332a.532.532 0 0 0 .208.2.789.789 0 0 0 .4.087.778.778 0 0 0 .413-.091.541.541 0 0 0 .2-.208 3.326 3.326 0 0 0 .138-.349l.8-2.3a1.1 1.1 0 0 0 .074-.316.307.307 0 0 0-.154-.259.647.647 0 0 0-.373-.1.591.591 0 0 0-.339.081.46.46 0 0 0-.161.178 1.876 1.876 0 0 0-.091.252l-.564 1.954-.631-1.83a3.426 3.426 0 0 0-.144-.336.577.577 0 0 0-.212-.2.8.8 0 0 0-.426-.094.846.846 0 0 0-.426.091.583.583 0 0 0-.225.212 2.437 2.437 0 0 0-.144.332l-.628 1.83-.567-1.967a1.116 1.116 0 0 0-.171-.359.5.5 0 0 0-.406-.145zm7.732 0a.643.643 0 0 0-.376.1.309.309 0 0 0-.151.259 1.018 1.018 0 0 0 .074.316l.8 2.3c.024.069.052.146.084.228a.777.777 0 0 0 .124.218.525.525 0 0 0 .212.148.891.891 0 0 0 .336.054.781.781 0 0 0 .4-.091.536.536 0 0 0 .208-.2 3.606 3.606 0 0 0 .148-.339l.715-2.014.712 2.025c.059.15.106.261.144.332a.532.532 0 0 0 .208.2.789.789 0 0 0 .4.087.778.778 0 0 0 .413-.091.541.541 0 0 0 .2-.208 3.326 3.326 0 0 0 .138-.349l.8-2.3a1.1 1.1 0 0 0 .074-.316.307.307 0 0 0-.154-.259.647.647 0 0 0-.373-.1.591.591 0 0 0-.339.081.46.46 0 0 0-.161.178 1.876 1.876 0 0 0-.091.252l-.564 1.954-.631-1.83a3.424 3.424 0 0 0-.144-.336.564.564 0 0 0-.208-.2.8.8 0 0 0-.426-.094.86.86 0 0 0-.43.091.583.583 0 0 0-.225.212 2.436 2.436 0 0 0-.144.332l-.628 1.83-.567-1.967a1.116 1.116 0 0 0-.168-.359.5.5 0 0 0-.416-.144zm7.732 0a.643.643 0 0 0-.376.1.309.309 0 0 0-.151.259 1.018 1.018 0 0 0 .074.316l.8 2.3c.024.069.052.146.084.228a.777.777 0 0 0 .124.218.525.525 0 0 0 .212.148.891.891 0 0 0 .336.054.781.781 0 0 0 .4-.091.536.536 0 0 0 .208-.2 3.441 3.441 0 0 0 .151-.339l.712-2.014.712 2.025c.059.15.106.261.144.332a.532.532 0 0 0 .208.2.789.789 0 0 0 .4.087.778.778 0 0 0 .413-.091.541.541 0 0 0 .2-.208 3.323 3.323 0 0 0 .138-.349l.8-2.3a1.1 1.1 0 0 0 .074-.316.3.3 0 0 0-.151-.259.658.658 0 0 0-.376-.1.591.591 0 0 0-.339.081.46.46 0 0 0-.161.178 1.877 1.877 0 0 0-.091.252l-.561 1.954-.635-1.83a3.426 3.426 0 0 0-.144-.336.564.564 0 0 0-.208-.2.8.8 0 0 0-.426-.094.86.86 0 0 0-.43.091.583.583 0 0 0-.225.212 2.436 2.436 0 0 0-.144.332l-.628 1.83-.564-1.967a1.116 1.116 0 0 0-.171-.359.5.5 0 0 0-.414-.144zm-15.972 4.878a11.374 11.374 0 0 0 21.683 0h-1.593a9.264 9.264 0 0 1-.544 1.252h-3.223a12.8 12.8 0 0 0 .346-1.252h-1.535a10.515 10.515 0 0 1-.393 1.252h-3.334v-1.252h-1.5v1.252h-3.049a12.726 12.726 0 0 1-.356-1.252h-1.544c.087.424.192.842.312 1.252h-3.143a9.282 9.282 0 0 1-.547-1.252zm3.119 2.756h2.7a9.551 9.551 0 0 0 2.219 3.274 9.764 9.764 0 0 1-4.924-3.273zm4.371 0h2.417v2.81a7.166 7.166 0 0 1-2.421-2.809zm3.922 0h2.585a8.237 8.237 0 0 1-2.585 2.74zm4.314 0h2.837a9.783 9.783 0 0 1-5.526 3.428 10.126 10.126 0 0 0 2.689-3.428z" transform="translate(-67.923 -111.689)" style="fill:#36383b"/>
</svg>
