<svg xmlns="http://www.w3.org/2000/svg" width="19.999" height="20.636">
    <path data-name="Subtraction 1" d="M6.186 20.637 4.972 19H0V0h20v19H7.293l-1.107 1.636zm2.208-6.9V16h1.656v-2.268zm1.926-9.054a2.4 2.4 0 0 1 .738.117 1.815 1.815 0 0 1 .63.351 1.867 1.867 0 0 1 .441.576 1.715 1.715 0 0 1 .171.773 1.791 1.791 0 0 1-.261.972 2.92 2.92 0 0 1-.639.72 5.162 5.162 0 0 1-.792.531c-.266.145-.509.281-.72.4a2.812 2.812 0 0 0-1.179 1.242 4.125 4.125 0 0 0-.315 1.656h1.656a2.108 2.108 0 0 1 .162-.864 2.213 2.213 0 0 1 .423-.63 3.013 3.013 0 0 1 .6-.477c.227-.137.463-.273.7-.405a7.509 7.509 0 0 0 .819-.513 3.094 3.094 0 0 0 .666-.648 3.042 3.042 0 0 0 .441-.828 3.294 3.294 0 0 0 .162-1.089 3.7 3.7 0 0 0-.315-1.584 3.074 3.074 0 0 0-.833-1.083 3.583 3.583 0 0 0-1.179-.63 4.437 4.437 0 0 0-3.573.4 3.634 3.634 0 0 0-1.512 1.71l1.3.882a3.812 3.812 0 0 1 .4-.576 3.21 3.21 0 0 1 .549-.513 2.782 2.782 0 0 1 .666-.36 2.252 2.252 0 0 1 .793-.135z" transform="translate(-.001 -.001)" style="fill:#36383b"/>
</svg>
